<?xml version="1.0" encoding="UTF-8"?>
<svg id="Layer_2" data-name="Layer 2" xmlns="http://www.w3.org/2000/svg" xmlns:xlink="http://www.w3.org/1999/xlink" viewBox="0 0 2015.6350745931 1011.2716155559">
  <defs>
    <style>
      .cls-1 {
        fill: url(#linear-gradient);
      }

      .cls-2 {
        fill: #fff;
      }
    </style>
    <linearGradient id="linear-gradient" x1="0" y1="505.635807778" x2="2015.6350745931" y2="505.635807778" gradientUnits="userSpaceOnUse">
      <stop offset="0" stop-color="#ac1e40"/>
      <stop offset="1" stop-color="#ff9205"/>
    </linearGradient>
  </defs>
  <g id="Layer_1-2" data-name="Layer 1">
    <g>
      <path class="cls-1" d="M2015.2984766142,438.5991217285c-.1403702148-1.1576414185-.4178078158-2.3119800084-.8009359315-3.3606280836l-1.8049958208-5.0681904612c-2.4721671947-10.1215181937-9.88536595-22.8605280398-31.0531943408-26.8486935542l-.3269800298-.0611023288-1.4681073053-.1783527435-.2840432582-.0181655572c-1.3392969905-.0842221289-2.7033651955-.1288103147-4.0492678432-.1288103147-7.6196255418,0-15.439072213,1.3855365907-23.2453075698,4.1186272435-8.3330365159,2.0906904933-16.3143217876,4.3580823158-23.7258691286,6.7443759672-7.3289766265,2.3598710228-14.657953253,4.495149702-21.780503093,6.3480365372l-.3236772012.0891763717c-46.0794129809,13.6225164921-81.4989467089,23.5888017424-105.323900695,29.6362808786-7.1242012543,1.8446297638-14.4284066665,2.7793302529-21.7094922785,2.7793302529-21.0836062619,0-43.3991675855-7.8607320284-66.3290550255-23.3625579845-4.3514766586-3.2186064545-10.3857444804-8.4255157162-17.9409648649-15.4820089845l-.1667928435-.1519301148c-.1866098149-.1667928434-.3781738728-.3269800297-.6027662164-.5102870161l-.2543178009-.2278951722-.4029450872-.2989059868c-13.2080115049-9.7400414924-26.1765679375-14.6777702245-38.5423581536-14.6777702245-2.2739974797,0-4.5562520307.1667928434-6.754284453.4937728732-14.3491387804,2.0906904933-26.9031902258,9.6260939062-37.3137059206,22.3964806238-3.5769633558,4.3845049444-7.2018177261,8.7227702887-10.8283235106,13.0610356329-5.8625207355,7.0135564968-11.923211186,14.2665680659-17.7262810069,21.6665555069-5.8394009354,7.4627411841-12.0569757436,15.5612768706-18.9978700115,24.741488918-1.8875665354,2.4886813376-3.8494467139,4.9113061035-5.9269258929,7.4759524984-.2708319438.3352371012-.543315302.6721256167-.8141472458,1.0073627179,2.9543801678-11.2428284978,5.4017761481-22.8175912682,5.0450706611-34.8481443831-.3666139728-12.4467095164-5.1540640044-23.5904531567-13.1320464475-30.5726327819-6.4421671519-5.6362769775-15.0691554116-8.7392844316-24.2890014021-8.7392844316-3.0187853252,0-6.0326164075.3368885155-8.973785261,1.0057113036-10.6400622813,2.4341846659-18.4694174382,8.7409358459-23.4319173847,13.2724166623l-.2477121437.226243758-.2328494151.2411064866c-16.7602036463,17.4653575488-40.3655195316,40.6446085469-70.1586847679,68.8920500062-31.5948582285,29.950049594-63.4572455723,45.1381068346-94.702003971,45.1381068346-26.1484938945,0-45.6236226364-10.8597003821-54.9045709556-17.3315929912l.1122961718.0462396002-.3401913441-.2014725436c-.673777031-.4590931731-16.4051495736-11.6259566135-10.2057403226-42.0004196804,1.3657196192-6.6948335385,3.0782362397-13.8025206499,4.8914891319-21.3280155771,5.378656348-22.323818395,10.9389682681-45.4023331213,8.565885931-62.7686058126-.3319342726-6.8797919391-3.0386022967-13.4606778915-7.6642137277-18.6147418958-3.4712728411-4.0558735004-7.9185315286-6.9342886108-13.2212228192-8.5576288595-.2708319438-.0858735432-1.5407695341-.4656988302-1.5407695341-.4656988302h-.079267886c-2.4473959803-.6308402594-4.9575457036-.9495632177-7.4825581556-.9495632177-12.2881737444,0-23.5359564851,7.6972420135-27.9914722441,19.1547543692l-4.665245374,12.0074333148c-6.3166596657,15.1996171407-11.9810106862,30.9078698832-17.4620547203,46.102532781-9.2495714477,25.6514181927-18.8145630251,52.1764345457-31.5337558997,76.075702175-13.587836792,25.5539847495-30.8649331116,47.9636766877-49.1559978063,71.6878944021-2.0543593789,2.6637312525-4.110370172,5.3307653335-6.159775308,8.0011022432-14.1740888655,18.4611603667-23.6333899283,25.4515970634-27.9287185009,27.951838301-.5268011591-1.0271796894-1.0502994895-2.1881239365-1.4086563908-2.9874084537-.3682653871-.8174500744-.7200166312-1.5936147915-1.0552537324-2.2855573797-5.9021546785-16.8246088037-11.0875955544-31.733577029-15.41099817-44.3074454459-5.2944342191-15.4588891845-9.2214974047-27.2615471271-11.6721962136-35.079342384-2.1022503933-7.1968634832-4.3712936301-15.0608983402-6.8186896104-23.6168757854-3.4465016268-12.0916554437-5.0632362183-19.0589723403-6.9359400251-27.1277825695-2.0873876647-8.9919508182-4.4538643447-19.1844798265-9.8275664498-38.8676867691l-.0478910145-.170095672c-3.3655823264-11.538431656-8.5295548166-20.7847002752-15.3482444269-27.4795338136-6.9425456822-6.8153867818-14.7223584104-10.2717968943-23.1264057408-10.2717968943-1.0453452466,0-2.1105074648.0561480859-3.1723668543.1667928435-6.4173959375.6754284453-15.3845755413,4.0063310716-21.6384814639,15.9807361006-4.34817383,8.2174375154-5.842703764,17.975644565-4.4439558589,29.0037892048l.0478910145.38477953.0247712144.118901829.0247712144.2807404296,6.2175748082,28.8287392899.0363311144.130461729c.051193843.2146838579.1023876861.4145049872.1387188005.5317554019,3.4597129411,12.2700081872,4.7924042745,18.3620755093,6.0821588363,24.254321702,1.3739766907,6.2819799656,2.6802453954,12.2468883871,6.2803285513,24.3979947453l-45.4089387784,22.90676764c-35.7399081006,18.0582152796-83.2213718152,40.4001992317-133.5746449829,52.987278963-29.1012226481,7.2728285406-53.1259977635,10.9604366539-71.4038511438,10.9604366539-6.3199624943,0-15.0922752117-.8075415886-26.0741802514-2.3995049658l-.2311980008-.0297254572c-29.3357234775-3.5637520414-42.4182274962-17.8303201073-42.4182274962-46.2561143101,0-20.5898333887,2.3995049658-39.8684438298,7.1341097401-57.3057273357,7.3933817839-24.6324955748,16.135969044-50.0279445523,25.9569298367-75.4068793869l136.4167289789-344.1283157584.1519301148-.4095507444.1453244577-.435973373c5.9236230643-17.8435314216,6.7229075814-23.5722875995,6.7229075814-26.8206195113,0-15.5315514133-7.50732937-27.3044838987-21.7094922785-34.0439056231l-.2923003296-.1387188005-1.3227828476-.5301039876-.3286314441-.107341929c-7.7071504993-2.5316181091-10.7903409819-2.8734608675-12.7885522748-2.8734608675-11.3567760839,0-21.4650829633,5.3208568478-30.068951423,15.846971543-.5978119736.7365307741-1.0387395895,1.4301247766-1.3921422479,2.009771193l-.2130324436.3649625584c-4.2358776582,7.6592594848-7.7088019136,15.0675039973-10.3246421516,22.018306751l-56.2636849177,137.5479477687-59.1371457852,143.6218495335c-3.436593141,8.3445964159-6.6436396954,17.273793491-9.7449957352,25.9090388222-6.2043634939,17.273793491-12.6184566028,35.1371418842-21.3065471913,49.7538097799-12.6679990315,21.3511353772-69.2570125647,28.2936810594-103.0680687726,32.4420337601-8.0159649718.9825915036-15.5860480849,1.9123377498-21.7838059216,2.893277839-64.9583811634,10.3180364945-136.7073778942,15.7710064856-207.4886458501,15.7710064856-8.022570629,0-15.6405447565-.3996422586-22.6673125676-1.1906697043-2.8453868246-.3137687154-5.4678327198-.6159775308-7.9201829429-.911580689l1.2897545618-4.1830324008c41.0739762628-89.6998700814,101.9963008973-225.4114451578,181.0759256689-403.3711520583.0165141429-.0313768715.0330282858-.0627537431.0495424288-.0957820289,3.4597129411-6.1250956078,7.5948543274-14.8181404393,12.6135023599-26.5167592816.0346797001-.079267886.067707986-.158535772.1007362718-.2411064866l.1337645576-.2642262867.2080782007-.5862520735c4.2903743298-12.0833983722,2.7727245957-24.0313807726-4.415881816-34.5954779965-7.3273252122-10.6532735956-17.7906861643-16.2845963303-30.2572126522-16.2845963303-9.318930848,0-22.3337268807,3.3342054549-31.9400038155,19.0160355688-2.0956447361,2.3417054656-4.0509192575,5.3489308908-5.9748169073,9.200029019l-27.492745128,56.237262289c-25.4747168635,49.2815052925-43.1630153418,85.4904150519-54.0772123955,110.7058598716-25.4416885777,58.790348784-52.1219378741,118.2676859133-77.9252861817,175.7864456926-21.8102285503,48.6225909901-44.3635935318,98.8998991004-66.0846457103,148.5711381657-6.4504242233,14.7471296247-12.9487394611,29.474442278-19.4487061132,44.2034063455-22.6904323678,51.425041043-46.1553780383,104.6005812353-67.1580649999,157.8818119422-3.2351205974,8.2042262011-6.5511604951,16.401846745-10.0637186935,25.0800288478C25.5473790923,802.3825703865,0,865.5144873433,0,926.5259883495c0,28.2556985307,11.8720173429,51.6149536866,35.2907234133,69.428759651,13.3731529341,10.1628035511,26.802453954,15.3168675554,39.9130320157,15.3168675554,13.2592053479,0,33.9101410654-4.0327537003,60.0635892028-38.9023664692,27.8362393006-37.1221418628,52.4307523467-77.3406855224,73.1015050357-119.5409263322,22.2577618233-45.4452698929,39.9856942446-93.2652735372,52.6883729762-142.1339252567,9.1620464903-35.2527408846,12.8380947035-70.4179568117,16.3952410878-104.4271827347,1.2071838472-11.5417344846,2.4506988089-23.4368716276,3.900640557-35.2659521989,58.3312556109-.4970757018,109.2080271091-3.5290723413,155.4129475761-9.2611313478,5.6990307206-.7084567312,33.7004114504-5.5718718202,66.1242796533-11.2031945548,25.8545421506-4.4885440448,58.8481482842-10.2189516369,75.9254234745-12.9817677469-.4310191301,4.0905532005-1.0321339323,8.28844833-1.6497628774,12.608548117-1.2517720331,8.7657070602-2.5481322521,17.828668693-2.5481322521,27.0931028694,0,33.9877575372,9.8407777641,63.1203570568,29.2432442771,86.5803484844,19.3843009558,23.4814598135,46.0183106521,38.5621751251,79.2266006436,44.8342466049,13.1188351331,2.3928993087,26.9907151833,3.6050373987,41.2325120348,3.6050373987,52.6685560047,0,104.2669955484-15.9295422576,152.6055432803-32.2471668737,43.2571459564-14.6051079957,85.5498659664-32.7673623756,125.7898780119-54.0144586524,1.9371089641,7.2216346975,3.9287145999,14.3425331233,6.2076663224,21.4568258919,8.3478992445,26.0527118656,27.0022750833,70.3552030686,58.1529028674,74.3549284831,1.9486688642.2510149723,3.9419259142.3781738728,5.9269258928.3781738728,29.4116885349,0,54.8286058982-27.2235645984,71.6466090447-45.2388431064l1.4466389195-1.5506780199c16.4596462452-17.6172876637,32.2339555594-36.398822403,46.8869545695-55.8260601304,7.2860398549-9.6591221921,14.4118925235-19.6419215853,21.1826911194-29.6808690645.5466181305-.8108444172,1.2798460761-2.0972961504,3.3242969692-5.6990307206,2.1303244363-3.753664685,5.2861771477-9.318930848,8.2042262011-14.1278492654,25.9618840796,27.4068715848,59.8158770591,40.7519504759,103.2678899019,40.7519504759,12.4648750736,0,25.5176536351-1.070116461,39.9047749443-3.2731031261,21.0902119191-3.2285149402,41.4174704355-10.2519799228,60.4054319612-20.8656195754,7.6675165563-4.2705573583,15.2838392696-11.2180572834,22.6491470105-17.936010622,3.7734816565-3.4415473839,7.6576080705-6.9838310395,11.3419133553-9.9580281789.4937728732,11.8472461285-6.1614267223,32.7739680328-11.102458283,48.3088222746-2.9444716821,9.2578285192-5.4876496913,17.2523251052-6.8252952675,23.6119215425l-10.9026371537,52.0212016023c-1.9651830071,11.1553035403.5565266163,22.9265846115,6.7410731387,31.4891677139,5.1358984471,7.1093385257,12.370744459,11.5285231702,20.9349789757,12.7802952033,1.5193011483.2212895151,3.0749334111.3335856869,4.6239600167.3335856869,3.1624583686,0,6.3876704802-.4656988303,9.5253576344-1.3640682049,5.2630573476-1.4697587196,10.4996920665-4.2045007866,15.1104407689-7.8822004142,7.4148501697-5.8625207355,12.8034150034-13.4425123343,17.131771862-19.5345796563,10.1875747654-14.3375788804,20.14395153-29.0516802193,29.7716968505-43.2802657565,11.923211186-17.6205904923,24.2510188734-35.8406443724,36.9850744766-53.2795792926,7.9647711288-10.9208027109,15.8965139718-21.8663766362,23.8282568147-32.8136019758,15.8337602287-21.8531653219,32.2075329307-44.449467075,48.5763513899-66.439699783,2.8866721819-3.8824749998,6.3001455228-7.6823792849,10.2139973941-11.368335984l9.4444383342,7.0267678111.7266222883.5218469162.2295465866.146975872c38.3920794531,24.4772626313,75.7520249739,36.8892924476,111.0427483871,36.8909438619h.0066056572c12.0999125152,0,24.1634939159-1.4615016481,35.9925744873-4.3795507015,37.0544338768-9.6888476493,74.7743877132-20.4544174168,112.1211219196-32.0027575586l56.1117548028-16.0253242865c6.4999666521-2.0840848361,13.163423319-6.5990515095,20.3602868022-13.8008692356,9.0200248612-8.2422087298,12.9553451182-19.0375039545,11.3865015411-31.1621876841ZM101.2647243661,884.7798864701c-5.9863768073,9.3717761053-10.9719965539,16.707358389-14.9304366111,21.9687643223,8.4915722878-73.2682978792,39.003102741-141.7838254269,68.5188303763-208.0649894379,3.1971380687-7.1836521688,6.3959275517-14.3640015091,9.568294406-21.5542593351,4.2887229155-9.7301330066,8.446984102-19.798805943,12.4681779022-29.5355446068,7.2744799549-17.6123334208,14.7719008391-35.7613764864,23.3460438416-52.6569961046.0297254572.6242346022.0544966716,1.2715890046.0710108145,1.9387603784.2295465866,9.1174583044-.2972545725,17.7246295927-1.6101289344,26.3136353237-2.1072046362,13.7694923641-6.0821588363,26.8899789115-11.4013642698,42.3505195102-6.1663809651,17.9095879933-12.0255988721,36.5689180751-17.6916013068,54.6139220403-17.5941678636,56.0374411597-35.7877991151,113.9822658264-66.7501656699,162.1424608148l-1.5886605486,2.4837270947Z"/>
      <g>
        <path class="cls-2" d="M435.8197914755,932.337315242l-43.1910893847-97.3987635093c-.4772587303-1.0469966609-.5020299447-2.0015141215-.0726622288-2.8602495532.4293677158-.8587354317,1.2633319331-1.2864517332,2.5035440662-1.2864517332h23.3130155557c.951214632,0,1.8809608782.3104658869,2.7875873244.9297462462.9049750318.6209317737,1.5969176201,1.3574625478,2.0741763504,2.2161979794l25.1725080482,57.493988565c.475607316.8587354317,1.0948876754,1.2881031475,1.8594924925,1.2881031475.7613019885,0,1.3805823478-.4293677159,1.8594924924-1.2881031475l25.0288350048-57.493988565c.475607316-.8587354317,1.1658984899-1.5952662058,2.072524936-2.2161979794.9049750318-.6192803594,1.8347212781-.9297462462,2.7892387387-.9297462462h23.7423832715c1.0469966609,0,1.8099500637.4062479157,2.287208794,1.2154409187.4772587303.8108444172.5234983305,1.5969176201.1436730434,2.3598710228l-43.6221085148,97.9701528542c-.4772587303.8570840174-1.1692013185,1.5969176201-2.0741763504,2.2161979795-.9066264461.6209317737-1.8363726923.9297462462-2.7875873244.9297462462h-19.0226412259c-.9545174606,0-1.8842637068-.3088144726-2.7892387387-.9297462462-.9066264461-.6192803594-1.59691762-1.3591139621-2.0741763503-2.2161979795Z"/>
        <path class="cls-2" d="M659.3634870694,860.5404274967v6.0061937789c0,.9545174606.3335856869,1.7653618778,1.0007570608,2.4308818374.6671713738.6688227881,1.4780157911,1.002408475,2.4325332517,1.002408475h38.7586934258c.951214632,0,1.7620590492.3352371012,2.4308818373,1.0007570608.6655199596.6671713738,1.0007570608,1.4796672054,1.0007570608,2.4308818374v19.7377036142c0,.9545174606-.3352371012,1.7653618778-1.0007570608,2.4308818373-.6688227881.6688227881-1.4796672053,1.0007570608-2.4308818373,1.0007570608h-38.7586934258c-.9545174606,0-1.7653618778.3352371012-2.4325332517,1.0007570608-.6671713738.6688227881-1.0007570608,1.4796672054-1.0007570608,2.4325332516v5.4348044339c0,.9545174606.3335856869,1.7653618778,1.0007570608,2.4308818374.6671713738.6688227881,1.4780157911,1.0007570608,2.4325332517,1.0007570608h44.4791925322c.951214632,0,1.7637104635.3352371012,2.4308818374,1.002408475.6655199595.6671713738,1.0007570608,1.478015791,1.0007570608,2.4308818373v19.7360521999c0,.9545174606-.3352371012,1.7670132921-1.0007570608,2.4325332517-.6671713738.6671713738-1.4796672053,1.0007570608-2.4308818374,1.0007570608h-72.797644806c-.9545174606,0-1.7653618778-.3335856869-2.4325332516-1.0007570608-.6671713739-.6655199596-1.0007570608-1.4780157911-1.0007570608-2.4325332517v-97.8264798108c0-.951214632.3335856869-1.7620590492,1.0007570608-2.4308818374.6671713738-.6655199595,1.478015791-1.0007570608,2.4325332516-1.0007570608h72.797644806c.951214632,0,1.7637104635.3352371012,2.4308818374,1.0007570608.6655199595.6688227881,1.0007570608,1.4796672054,1.0007570608,2.4308818374v19.4520089417c0,.9528660463-.3352371012,1.7653618778-1.0007570608,2.4308818374-.6671713738.6671713738-1.4796672053,1.0007570608-2.4308818374,1.0007570608h-44.4791925322c-.9545174606,0-1.7653618778.3352371012-2.4325332517,1.0007570608-.6671713738.6688227881-1.0007570608,1.4796672054-1.0007570608,2.4325332516Z"/>
        <path class="cls-2" d="M938.8273734083,834.2234893444v97.8264798108c0,.9545174606-.3319342726,1.7670132921-.9974542322,2.4325332517-.6671713739.6671713738-1.4763643768,1.0007570608-2.4275790088,1.0007570608h-21.1248916192c-.951214632,0-1.9503202785-.2856946725-2.9973169394-.8587354317-1.0453452466-.5713893449-1.8545382496-1.2369093044-2.4259275945-2.0015141215l-37.2509521775-52.4885518469c-.5713893449-.7629534027-1.1692013185-1.0734192896-1.7851788493-.9297462462-.6192803594.1420216291-.9280948319.6919425882-.9280948319,1.6448086345v51.2004486994c0,.9545174606-.3368885155,1.7670132921-1.0073627179,2.4325332517-.6704742024.6671713738-1.4862728625,1.0007570608-2.4424417374,1.0007570608h-21.4171919489c-.9594717035,0-1.7752703635-.3335856869-2.445744566-1.0007570608-.6704742024-.6655199596-1.0057113036-1.4780157911-1.0057113036-2.4325332517v-97.8264798108c0-.951214632.3335856869-1.7620590492,1.0024084751-2.4308818374.6655199595-.6655199595,1.4763643768-1.0007570608,2.4308818374-1.0007570608h21.4535230633c.951214632,0,1.9519716927.2625748724,3.0022711823.7860732028,1.0486480752.5251497447,1.8594924924,1.1692013185,2.4325332517,1.930503307l37.1848956059,52.4885518469c.5730407592.7646048171,1.1675499042,1.098190504,1.7884816779,1.0024084751.6192803594-.0941306146.9297462462-.6192803594.9297462462-1.57379782v-51.2021001137c0-.951214632.3319342726-1.7620590492,1.0007570607-2.4308818374.6655199596-.6655199595,1.4763643768-1.0007570608,2.4308818374-1.0007570608h21.1678283908c.951214632,0,1.7637104635.3352371012,2.4308818374,1.0007570608.6655199596.6688227881,1.0007570608,1.4796672054,1.0007570608,2.4308818374Z"/>
        <path class="cls-2" d="M1141.9183029997,857.1071371843h-20.0233982867c-.9528660463,0-1.7653618778.3352371012-2.4308818374,1.0007570608-.6671713739.6688227881-1.0007570608,1.4796672054-1.0007570608,2.4325332516v71.5095416585c0,.9545174606-.3104658868,1.7670132921-.9297462462,2.4325332517-.6209317737.6671713738-1.454895991,1.0007570608-2.5035440662,1.0007570608h-21.451871649c-.9545174606,0-1.7653618778-.3335856869-2.4325332517-1.0007570608-.6671713739-.6655199596-1.0007570608-1.4780157911-1.0007570608-2.4325332517v-71.5095416585c0-.9528660463-.3104658868-1.7637104635-.9297462462-2.4325332516-.6209317737-.6655199596-1.454895991-1.0007570608-2.5035440662-1.0007570608h-20.3090929591c-.9528660463,0-1.7653618778-.3335856869-2.4308818374-1.0007570608-.6671713739-.6655199595-1.0007570608-1.4780157911-1.0007570608-2.4308818374v-19.4520089417c0-.951214632.3335856869-1.7620590492,1.0007570608-2.4308818374.6655199595-.6655199595,1.478015791-1.0007570608,2.4308818374-1.0007570608h75.5158727301c1.0486480752,0,1.8826122925.3352371012,2.5035440662,1.0007570608.6192803594.6688227881.9297462462,1.4796672054.9297462462,2.4308818374v19.4520089417c0,.9528660463-.3104658868,1.7653618778-.9297462462,2.4308818374-.6209317737.6671713738-1.454895991,1.0007570608-2.5035440662,1.0007570608Z"/>
        <path class="cls-2" d="M1267.9212134552,834.3671623878c0-.9528660463.3302828583-1.7637104635.9941514036-2.4325332517.6638685452-.6655199595,1.4697587196-1.0007570608,2.4193219373-1.0007570608h21.4898541777c.9479118034,0,1.7538019778.3352371012,2.417670523,1.0007570608.6638685452.6688227881.9974542322,1.4796672053.9974542322,2.4325332517v57.9233562808c0,3.7189849849.5961605593,6.793918396,1.7934359208,9.2248002333,1.1989267758,2.4308818374,2.6818968097,4.3399167586,4.4522129304,5.7204991064,1.7703161207,1.3838851764,3.6628368989,2.3598710228,5.6742595062,2.932911782,2.0114226073.5713893449,3.8296297424.8570840174,5.4562728197.8570840174s3.4465016268-.2856946725,5.457924234-.8570840174c2.0114226073-.5730407592,3.8775207569-1.5490266056,5.5999458631-2.932911782,1.7224251062-1.3805823479,3.1822753401-3.2896172691,4.3795507016-5.7204991064,1.1989267758-2.4308818374,1.7967387493-5.5058152485,1.7967387493-9.2248002333v-57.9233562808c0-.9528660463.3302828583-1.7637104635.9941514036-2.4325332517.6638685452-.6655199595,1.4714101339-1.0007570608,2.4209733516-1.0007570608h21.4882027634c.9479118034,0,1.755453392.3352371012,2.4193219373,1.0007570608.662217131.6688227881.9958028179,1.4796672053.9958028179,2.4325332517v57.9233562808c0,6.7707985959-1.0717678753,12.9206654181-3.2136522116,18.4496004667-2.140232922,5.5305864629-5.2102120903,10.2503285085-9.2082860904,14.1592261369-4.0013768287,3.9105490427-8.8069924176,6.9375914393-14.4234524236,9.0827786043-5.6181114203,2.1451871649-11.8522003714,3.2169550402-18.7072210962,3.2169550402s-13.0907610902-1.0717678753-18.7072210962-3.2169550402c-5.6181114203-2.1451871649-10.4237270091-5.1722295616-14.4218010093-9.0827786043-3.9997254145-3.9088976284-7.0928243828-8.6286396741-9.2825997336-14.1592261369-2.1914267651-5.5289350486-3.2830116118-11.6788018708-3.2830116118-18.4496004667v-57.9233562808Z"/>
        <path class="cls-2" d="M1517.1906408849,935.4832594677h-21.4171919489c-.9594717035,0-1.7752703635-.3335856869-2.445744566-1.0007570608-.6704742024-.6655199596-1.0057113037-1.4780157911-1.0057113037-2.4325332517v-97.8264798108c0-.951214632.3335856869-1.7620590492,1.0024084751-2.4308818374.6655199596-.6655199595,1.4763643768-1.0007570608,2.4308818374-1.0007570608h44.4791925322c5.5289350486,0,10.6301537956.9297462462,15.303656241,2.7875873244,4.6701996169,1.8594924925,8.6534108884,4.4588185875,11.9430281575,7.7946754568,3.289617269,3.3391596978,5.8625207355,7.2942969263,7.7220132279,11.8720173429,1.8594924924,4.5760690023,2.7892387387,9.6310481491,2.7892387387,15.1599831977,0,3.051813611-.356705487,6.0788560077-1.0717678753,9.08112719-.7150623883,3.0039225966-1.7422420777,5.842703764-3.0749334111,8.509737845-1.3376455763,2.671988324-2.909791982,5.0780989469-4.7197420456,7.2232861118-1.8132528923,2.1451871649-3.8626580282,3.9336688428-6.1498668222,5.3637936194-.7646048171.5713893449-1.2649833474,1.2649833474-1.5027870054,2.0741763504-.2394550723.8108444172-.0710108146,1.59691762.5003785304,2.3598710228,3.6232029559,4.7676330601,7.4379699697,9.6772877493,11.4426496271,14.7306154818,4.0046796573,5.0549791468,7.5799915988,9.6789391636,10.7259358245,13.8735314644.5730407592.7629534028.7150623883,1.5969176201.4293677159,2.5018926519-.2856946725.9082778604-.9066264461,1.3591139621-1.8594924925,1.3591139621h-26.6026328247c-.9528660463,0-1.9800457357-.2609234581-3.0749334111-.7860732029-1.0965390897-.5234983305-1.930503307-1.1675499042-2.5018926519-1.9321547213-3.0369508824-4.003028243-6.0491305504-8.0555989148-9.0398418327-12.1560606011-2.9907112822-4.0988102719-5.9549999358-8.2455115584-8.8961687893-12.4434066878-.5697379306-.7613019885-1.3772795193-1.4053535622-2.4209733516-1.930503307-1.0436938324-.5234983305-2.0394966502-.7860732028-2.9874084537-.7860732028h-3.131081497c-.9495632177,0-1.755453392.3352371012-2.4193219373,1.0007570608-.6655199595.6688227881-.9974542322,1.4796672053-.9974542322,2.4308818374v23.1693425123c0,.9545174606-.3368885155,1.7670132921-1.0073627179,2.4325332517-.6704742024.6671713738-1.4862728625,1.0007570608-2.4424417374,1.0007570608ZM1524.0555700954,879.1320495925h15.0856695545c1.137824447,0,2.3251913227-.2146838579,3.5587977986-.6424001595,1.2336064759-.4293677158,2.3714309229-1.0948876754,3.4151247552-2.0031655358,1.042042418-.9049750318,1.8958236068-2.0246339216,2.5629949807-3.3606280836.6638685452-1.3343427477.9958028179-2.9081405677.9958028179-4.7197420456,0-.9528660463-.1667928435-2.0741763504-.4987271161-3.3606280836-.3319342727-1.2881031475-.9016722033-2.525012452-1.7059109633-3.7189849848-.8075415886-1.1906697043-1.8974750211-2.1930781794-3.2747545404-3.0039225966-1.375628105-.8091930029-3.0584192682-1.2154409187-5.0533277326-1.2154409187h-15.0856695545c-.9479118034,0-1.7538019778.3352371012-2.417670523,1.0007570608-.6655199595.6688227881-.9974542322,1.4796672054-.9974542322,2.4325332516v15.1599831977c0,.9545174606.3319342726,1.7653618778.9974542322,2.4308818374.6638685453.6688227881,1.4697587196,1.0007570608,2.417670523,1.0007570608Z"/>
        <path class="cls-2" d="M1734.8883298862,860.5404274967v6.0061937789c0,.9545174606.3335856869,1.7653618778,1.0007570607,2.4308818374.6671713739.6688227881,1.4780157911,1.002408475,2.4325332517,1.002408475h38.7586934259c.951214632,0,1.7620590492.3352371012,2.4308818374,1.0007570608.6655199595.6671713738,1.0007570608,1.4796672054,1.0007570608,2.4308818374v19.7377036142c0,.9545174606-.3352371012,1.7653618778-1.0007570608,2.4308818373-.6688227881.6688227881-1.4796672054,1.0007570608-2.4308818374,1.0007570608h-38.7586934259c-.9545174606,0-1.7653618778.3352371012-2.4325332517,1.0007570608-.6671713738.6688227881-1.0007570607,1.4796672054-1.0007570607,2.4325332516v5.4348044339c0,.9545174606.3335856869,1.7653618778,1.0007570607,2.4308818374.6671713739.6688227881,1.4780157911,1.0007570608,2.4325332517,1.0007570608h44.4791925322c.951214632,0,1.7637104635.3352371012,2.4308818374,1.002408475.6655199596.6671713738,1.0007570608,1.478015791,1.0007570608,2.4308818373v19.7360521999c0,.9545174606-.3352371012,1.7670132921-1.0007570608,2.4325332517-.6671713738.6671713738-1.4796672054,1.0007570608-2.4308818374,1.0007570608h-72.797644806c-.9545174606,0-1.7653618778-.3335856869-2.4325332516-1.0007570608-.6671713739-.6655199596-1.0007570608-1.4780157911-1.0007570608-2.4325332517v-97.8264798108c0-.951214632.3335856869-1.7620590492,1.0007570608-2.4308818374.6671713739-.6655199595,1.4780157911-1.0007570608,2.4325332516-1.0007570608h72.797644806c.951214632,0,1.7637104635.3352371012,2.4308818374,1.0007570608.6655199596.6688227881,1.0007570608,1.4796672054,1.0007570608,2.4308818374v19.4520089417c0,.9528660463-.3352371012,1.7653618778-1.0007570608,2.4308818374-.6671713738.6671713738-1.4796672054,1.0007570608-2.4308818374,1.0007570608h-44.4791925322c-.9545174606,0-1.7653618778.3352371012-2.4325332517,1.0007570608-.6671713738.6688227881-1.0007570607,1.4796672054-1.0007570607,2.4325332516Z"/>
        <path class="cls-2" d="M1927.824712998,899.584815595c5.1491097615,3.3391596978,10.2486770942,5.9599541787,15.303656241,7.8656862713,5.0516763183,1.9090349212,9.7714183639,2.8602495532,14.1592261369,2.8602495532,4.1945923009,0,7.3867761267-.594509145,9.5815057203-1.7868302636,2.1930781794-1.1906697043,3.289617269-2.9791513822,3.289617269-5.3637936194,0-1.2385607188-.4772587303-2.2161979794-1.4301247766-2.9312603677-.9545174606-.7150623883-2.2161979794-1.3095715333-3.7899957994-1.7884816779-1.57379782-.475607316-3.4101705123-.8587354317-5.5058152485-1.1444301042-2.0989475647-.2856946724-4.2441347296-.6655199595-6.4355614947-1.1444301041-2.0989475647-.3798252871-4.5546006165-.832312803-7.3669591552-1.3574625478-2.8123585387-.5234983305-5.6973793063-1.2881031475-8.6517594741-2.2888602083-2.9576829964-1.0007570608-5.8889433641-2.2640889939-8.7970839318-3.7899957994-2.9081405676-1.5242553912-5.5058152485-3.4795299126-7.7946754568-5.8641721498-2.287208794-2.3813394086-4.1252329006-5.220120576-5.5058152485-8.5097378451-1.3822337621-3.2896172691-2.0741763503-7.1737436831-2.0741763503-11.6556820707,0-6.5792345381,1.2881031475-12.014038972,3.8626580282-16.3044133018,2.5745548807-4.2920257441,5.8394009354-7.6988934278,9.7961895783-10.2272087084,3.9551372286-2.525012452,8.3677162159-4.2903743298,13.2294798907-5.2911313905,4.863415089-1.0007570608,9.5831571346-1.5011355912,14.1592261369-1.5011355912,8.0093593147,0,15.1831029978,1.1675499042,21.5245338778,3.5026497127,6.3397794658,2.338402637,12.4186354735,5.746921735,18.2365680231,10.2272087084.7613019885.6671713738,1.1906697043,1.4796672054,1.2864517332,2.4308818374.0941306146.9545174606-.1436730434,1.811601478-.7150623883,2.5745548807l-11.1553035403,15.875045586c-.5730407592.7646048171-1.335994162,1.2402121331-2.2888602083,1.4301247766-.9545174606.1932154721-1.811601478,0-2.5745548807-.5713893449-4.8617636747-3.0501621967-9.3915930768-5.220120576-13.5861853777-6.5082237235-4.1978951295-1.2864517332-8.0589017434-1.930503307-11.5846712562-1.930503307-1.0502994895,0-2.2673918225.0247712144-3.6479741703.0710108145-1.3838851764.0495424287-2.695108124.2394550723-3.9336688428.5730407592-1.2402121331.3352371012-2.2657404082.8818552318-3.0749334111,1.6448086345-.8108444172.764604817-1.2154409187,1.8116014779-1.2154409187,3.1459442256,0,1.335994162,1.0024084751,2.5283152806,3.0039225966,3.5753119415,2.0031655358,1.0502994895,4.2903743298,1.9552745213,6.8649292105,2.7182279241,2.5745548807.764604817,5.0533277325,1.3574625478,7.4379699697,1.7868302636,2.3813394086.4293677159,3.9072462141.6935940025,4.5760690023.7877246171,3.4332903124.6671713739,7.1985148975,1.6448086345,11.2989765837,2.9312603677,4.098810272,1.2864517332,7.9366970859,3.1954866544,11.5136604416,5.7204991064,3.5753119415,2.5283152805,6.5775831238,5.8179325496,9.0101163754,9.8688518071,2.4308818374,4.0542220861,3.646322756,9.1306696187,3.646322756,15.2326454265,0,5.7204991064-1.0007570608,10.6549250099-3.0039225966,14.8016262964-2.0015141215,4.1483527007-4.7907528602,7.558523213-8.3660648017,10.2272087084-3.5753119415,2.6703369096-7.8656862713,4.6470798168-12.8711229894,5.9351829643-5.0070881324,1.2864517332-10.5624458096,1.930503307-16.6627702031,1.930503307-4.9591971179,0-9.5831571346-.4062479157-13.8735314644-1.2154409187-4.2903743298-.8091930029-8.2950539871-1.930503307-12.014038972-3.3622794979-3.7173335706-1.4301247766-7.1753950974-3.1211730113-10.3692303375-5.0764475326-3.1954866544-1.9536231071-6.1267470222-4.0261480431-8.7954325175-6.2208776368-.7646048171-.5730407592-1.1923211186-1.359113962-1.2864517332-2.3598710228-.0957820289-1.002408475.1420216291-1.8826122925.7150623883-2.6472171096l11.011630497-15.875045586c.5730407592-.7613019885,1.3343427477-1.2369093045,2.2888602083-1.4301247766.9528660463-.1899126435,1.8099500637-.0462396002,2.5745548807.4293677158Z"/>
      </g>
    </g>
  </g>
</svg>